<svg xmlns="http://www.w3.org/2000/svg" version="1.1" xmlns:xlink="http://www.w3.org/1999/xlink" xmlns:svgjs="http://svgjs.com/svgjs" width="1440" height="560" preserveAspectRatio="none" viewBox="0 0 1440 560"><g mask="url(&quot;#SvgjsMask1000&quot;)" fill="none"><rect width="1440" height="560" x="0" y="0" fill="#0e2a47"></rect><path d="M0,562.132C115.201,566.999,236.666,581.248,336.754,524C438.758,465.656,500.204,357.584,546.472,249.565C591.948,143.394,609.532,28.944,598.028,-85.983C586.156,-204.588,568.245,-335.823,479.868,-415.808C393.159,-494.283,257.915,-463.283,145.503,-495.537C34.04,-527.519,-62.728,-621.171,-177.473,-604.419C-296.055,-587.107,-392.799,-498.857,-468.441,-405.907C-542.628,-314.744,-583.154,-202.586,-599.23,-86.156C-615.241,29.805,-610.541,150.16,-559.782,255.644C-509.556,360.021,-420.554,440.672,-318.953,496.3C-221.764,549.512,-110.704,557.455,0,562.132" fill="#0b2239"></path><path d="M1440 1135.83C1556.599 1141.153 1678.554 1146.8110000000001 1779.827 1088.7820000000002 1883.307 1029.489 1971.46 931.3779999999999 1999.2350000000001 815.394 2025.672 704.9970000000001 1960.96 597.558 1923.092 490.54200000000003 1892.27 403.43899999999996 1862.195 316.31600000000003 1798.838 249.065 1737.162 183.598 1656.602 141.574 1570.339 116.10500000000002 1483.979 90.608 1394.49 87.024 1305.974 103.55000000000001 1210.054 121.45800000000003 1115.4769999999999 151.029 1041.634 214.81400000000002 960.952 284.506 890.623 373.356 872.078 478.345 853.302 584.642 898.017 688.887 940.3589999999999 788.178 983.6569999999999 889.711 1028.938 995.598 1119.5430000000001 1058.641 1211.597 1122.692 1327.972 1130.716 1440 1135.83" fill="#113255"></path></g><defs><mask id="SvgjsMask1000"><rect width="1440" height="560" fill="#ffffff"></rect></mask></defs></svg>